<?xml version="1.0" encoding="UTF-8"?>
<!DOCTYPE svg PUBLIC "-//W3C//DTD SVG 1.1//EN" "http://www.w3.org/Graphics/SVG/1.1/DTD/svg11.dtd">
<!-- Creator: CorelDRAW 2021 (64-Bit) -->
<svg xmlns="http://www.w3.org/2000/svg" xml:space="preserve" width="1.87861in" height="0.723626in" version="1.1" style="shape-rendering:geometricPrecision; text-rendering:geometricPrecision; image-rendering:optimizeQuality; fill-rule:evenodd; clip-rule:evenodd"
viewBox="0 0 1401.59 539.88"
 xmlns:xlink="http://www.w3.org/1999/xlink"
 xmlns:xodm="http://www.corel.com/coreldraw/odm/2003">
 <defs>
  <style type="text/css">
   <![CDATA[
    .fil0 {fill:#333333}
   ]]>
  </style>
 </defs>
 <g id="Layer_x0020_1">
  <metadata id="CorelCorpID_0Corel-Layer"/>
  <g id="_1932212465536">
   <path class="fil0" d="M1095.8 51.53l60.29 0 0 428.06 77.52 0 0 54.26 -77.52 0 -60.29 0 0 -54.26 0 -428.06zm257.84 -51.53l-56.31 36.65 70.68 0 -14.37 -36.65zm-365.42 0l-56.31 36.65 70.69 0 -14.38 -36.65zm335.84 479.59l77.53 0 0 54.26 -77.53 0 -60.29 0 0 -54.26 0 -159.77 0 -54.26 0 -159.77 0 -54.26 60.29 0 77.53 0 0 54.26 -77.53 0 0 159.77 77.53 0 0 54.26 -77.53 0 0 159.77zm-379.16 -107.04l44.69 0 -22.35 -228.51 -22.34 228.51zm50 54.26l-55.31 0 -10.47 107.04 -60.29 0 59.22 -482.32 30.14 0 18.09 0 30.14 0 59.22 482.32 -60.29 0 -10.47 -107.04zm-280.67 -375.28l-24.11 0 -30.16 0 -24.11 0 -38.13 320.86 -38.11 -320.86 -60.29 0 59.22 482.32 20.01 0 38.36 0 20.01 0 38.12 -345.63 38.12 345.63 20.01 0 38.36 0 20.01 0 59.22 -482.32 -60.29 0 -38.12 320.86 -38.11 -320.86zm-714.23 0l53.29 0 7.01 0 38.21 0 30.59 334.1 30.58 -334.1 38.21 0 7.01 0 53.28 0 0 482.32 -60.29 0 0 -405.77 -37.14 405.77 -18.08 0 -27.13 0 -18.08 0 -37.15 -405.77 0 405.77 -60.29 0 0 -482.32z"/>
   <path class="fil0" d="M408.89 437.39l0 18.08c0,14.36 -10.17,26.45 -23.66,29.43 -2.09,0.46 -4.26,0.71 -6.48,0.71 -16.58,0 -30.14,-13.56 -30.14,-30.14l0 -18.08 0 -170.51 0 -18.09c0,-16.58 13.56,-30.14 30.14,-30.14 2.22,0 4.39,0.24 6.48,0.71 13.49,2.99 23.66,15.09 23.66,29.43l0 18.09 0 34.17 60.29 0 0 -34.17 0 -13.26c0,-47.3 -37.32,-86.32 -83.96,-89.07 -1.74,-0.1 -3.51,-0.16 -5.28,-0.16l-1.2 0 -1.21 0c-49.07,0 -89.23,40.16 -89.23,89.23l0 13.26 0 170.51 0 13.26c0,49.08 40.15,89.23 89.23,89.23l1.21 0 1.2 0c1.77,0 3.53,-0.05 5.28,-0.16 46.65,-2.76 83.96,-41.77 83.96,-89.07l0 -13.26 0 -34.17 -60.29 0 0 34.17z"/>
  </g>
 </g>
</svg>
